<svg xmlns="http://www.w3.org/2000/svg" viewBox="0 0 64 64" width="64" height="64">
  <rect width="64" height="64" fill="#b85c38"/>
  <g transform="translate(5.1817 39.5874) scale(0.038668 -0.038668)" fill="#ffffff">
    <g transform="translate(0 0)"><path d="M186.94964599609375 260.8992919921875 198.64971923828125 283.3994140625H470.7000732421875L477.7000732421875 260.8992919921875ZM704.3502807617188 12Q708.80029296875 12 708.80029296875 6.0Q708.80029296875 0 704.3502807617188 0Q675.4502563476562 0 644.6002197265625 2.0Q613.7501831054688 4 585.400146484375 4Q553.0501098632812 4 529.4250793457031 2.0Q505.800048828125 0 477 0Q473 0 473.0 6.0Q473 12 477 12Q526.2498168945312 12 537.1497192382812 27.675018310546875Q548.0496215820312 43.35003662109375 526.3495483398438 88.5001220703125L310.6998291015625 536.2490844726562L343.2001953125 584.2999267578125L147.5001220703125 131.55023193359375Q121.60009765625 71.000244140625 144.85015869140625 41.5001220703125Q168.1002197265625 12 230.7000732421875 12Q235.7000732421875 12 235.7000732421875 6.0Q235.7000732421875 0 230.7000732421875 0Q200.7000732421875 0 175.7000732421875 2.0Q150.7000732421875 4 112.7000732421875 4Q75.9000244140625 4 53.5 2.0Q31.0999755859375 0 -0.7000732421875 0Q-4.7000732421875 0 -4.7000732421875 6.0Q-4.7000732421875 12 -0.7000732421875 12Q26.2999267578125 12 46.074920654296875 22.675018310546875Q65.84991455078125 33.35003662109375 84.24993896484375 61.375091552734375Q102.64996337890625 89.400146484375 124.9000244140625 141.000244140625L337.5001220703125 632.2999267578125Q339.05010986328125 635.2999267578125 345.1251525878906 635.5249328613281Q351.2001953125 635.7499389648438 352.2001953125 632.2999267578125L592.3004150390625 137Q615.7504272460938 88.35003662109375 633.5254211425781 60.85003662109375Q651.3004150390625 33.35003662109375 668.1753845214844 22.675018310546875Q685.0503540039062 12 704.3502807617188 12Z"/></g>
    <g transform="translate(706 0)"><path d="M34 168.2999267578125Q31 168.2999267578125 30.0 179.18645085515203Q29 190.07297495249156 30.0 200.38652409733953Q31 210.7000732421875 33 210.7000732421875H364Q367 210.7000732421875 368.0 200.38652409733953Q369 190.07297495249156 368.0 179.18645085515203Q367 168.2999267578125 364 168.2999267578125ZM220.25006103515625 25Q220.25006103515625 22 209.5125274658203 21.0Q198.77499389648438 20 188.03746032714844 20.5Q177.2999267578125 21 177.2999267578125 23V354Q177.2999267578125 357 188.03746032714844 358.0Q198.77499389648438 359 209.5125274658203 358.0Q220.25006103515625 357 220.25006103515625 354Z"/></g>
    <g transform="translate(1104 0)"><path d="M285.35028076171875 625Q287.80029296875 625 287.80029296875 619.0Q287.80029296875 613 285.35028076171875 613Q255.95037841796875 613 241.02542114257812 607.0Q226.1004638671875 601 221.27548217773438 586.0Q216.45050048828125 571 216.45050048828125 542V-20.4996337890625Q216.45050048828125 -121.4998779296875 168.100341796875 -182.2999267578125Q119.75018310546875 -243.0999755859375 27.9000244140625 -243.0999755859375Q-7.45001220703125 -243.0999755859375 -28.375091552734375 -230.07492065429688Q-49.3001708984375 -217.04986572265625 -49.3001708984375 -195.19970703125Q-49.3001708984375 -179.399658203125 -39.5001220703125 -167.84954833984375Q-29.7000732421875 -156.2994384765625 -9.94989013671875 -156.2994384765625Q10.2001953125 -156.2994384765625 20.725250244140625 -166.22451782226562Q31.25030517578125 -176.14959716796875 37.925323486328125 -189.47470092773438Q44.600341796875 -202.7998046875 52.2003173828125 -212.9998779296875Q59.80029296875 -223.199951171875 74.000244140625 -223.199951171875Q104.35003662109375 -223.199951171875 120.12490844726562 -184.75006103515625Q135.8997802734375 -146.3001708984375 135.8997802734375 -56.95037841796875V544Q135.8997802734375 573 129.07479858398438 587.5Q122.24981689453125 602 102.32485961914062 607.5Q82.39990234375 613 42 613Q40 613 40.0 619.0Q40 625 42 625Q71.9000244140625 625 105.25006103515625 623.5Q138.60009765625 622 174.95013427734375 622Q208.3001708984375 622 235.87521362304688 623.5Q263.45025634765625 625 285.35028076171875 625Z"/></g>
  </g>
</svg>
